HIERARCHY
ROOT Hips
{
	OFFSET -3.958830 18.904000 13.208200
	CHANNELS 6 Xposition Yposition Zposition Zrotation Yrotation Xrotation 
	JOINT LHipJoint
	{
		OFFSET 0.000000 0.000000 0.000000
		CHANNELS 3 Zrotation Yrotation Xrotation
		JOINT LeftUpLeg
		{
			OFFSET 1.800000 -1.400000 0.085000
			CHANNELS 3 Zrotation Yrotation Xrotation
			JOINT LeftLeg
			{
				OFFSET 2.215000 -6.000000 0.000000
				CHANNELS 3 Zrotation Yrotation Xrotation
				JOINT LeftFoot
				{
					OFFSET 2.500000 -6.900000 0.000000
					CHANNELS 3 Zrotation Yrotation Xrotation
					JOINT LeftToeBase
					{
						OFFSET 0.200000 -0.500000 1.950000
						CHANNELS 3 Zrotation Yrotation Xrotation
						End Site
						{
							OFFSET 0.000000 0.000000 0.000000
						}
					}
				}
			}
		}
	}
	JOINT RHipJoint
	{
		OFFSET 0.000000 0.000000 0.000000
		CHANNELS 3 Zrotation Yrotation Xrotation
		JOINT RightUpLeg
		{
			OFFSET -1.800000 -1.400000 0.085000
			CHANNELS 3 Zrotation Yrotation Xrotation
			JOINT RightLeg
			{
				OFFSET -2.215000 -6.000000 0.000000
				CHANNELS 3 Zrotation Yrotation Xrotation
				JOINT RightFoot
				{
					OFFSET -2.500000 -6.900000 0.000000
					CHANNELS 3 Zrotation Yrotation Xrotation
					JOINT RightToeBase
					{
						OFFSET -0.200000 -0.500000 1.950000
						CHANNELS 3 Zrotation Yrotation Xrotation
						End Site
						{
							OFFSET 0.000000 0.000000 0.000000
						}
					}
				}
			}
		}
	}
	JOINT LowerBack
	{
		OFFSET 0.000000 0.000000 0.000000
		CHANNELS 3 Zrotation Yrotation Xrotation
		JOINT Spine
		{
			OFFSET -0.087000 1.940000 -0.288900
			CHANNELS 3 Zrotation Yrotation Xrotation
			JOINT Spine1
			{
				OFFSET 0.000000 1.950000 0.060000
				CHANNELS 3 Zrotation Yrotation Xrotation
				JOINT Neck
				{
					OFFSET 0.000000 0.000000 0.000000
					CHANNELS 3 Zrotation Yrotation Xrotation
					JOINT Neck1
					{
						OFFSET 0.000000 1.600000 0.340000
						CHANNELS 3 Zrotation Yrotation Xrotation
						JOINT Head
						{
							OFFSET 0.000000 1.667000 -0.240000
							CHANNELS 3 Zrotation Yrotation Xrotation
							End Site
							{
								OFFSET 0.000000 0.000000 0.000000
							}
						}
					}
				}
				JOINT LeftShoulder
				{
					OFFSET 0.000000 0.000000 0.000000
					CHANNELS 3 Zrotation Yrotation Xrotation
					JOINT LeftArm
					{
						OFFSET 2.700000 1.550000 -0.730000
						CHANNELS 3 Zrotation Yrotation Xrotation
						JOINT LeftForeArm
						{
							OFFSET 5.450000 0.000000 0.000000
							CHANNELS 3 Zrotation Yrotation Xrotation
							JOINT LeftHand
							{
								OFFSET 3.450000 0.000000 0.000000
								CHANNELS 3 Zrotation Yrotation Xrotation
								JOINT LeftHandIndex1
								{
									OFFSET 0.750000 0.000000 0.000000
									CHANNELS 3 Zrotation Yrotation Xrotation
									End Site
									{
										OFFSET 0.000000 0.000000 0.000000
									}
								}
							}
						}
					}
				}
				JOINT RightShoulder
				{
					OFFSET 0.000000 0.000000 0.000000
					CHANNELS 3 Zrotation Yrotation Xrotation
					JOINT RightArm
					{
						OFFSET -2.700000 1.550000 -0.730000
						CHANNELS 3 Zrotation Yrotation Xrotation
						JOINT RightForeArm
						{
							OFFSET -5.450000 0.000000 0.000000
							CHANNELS 3 Zrotation Yrotation Xrotation
							JOINT RightHand
							{
								OFFSET -3.450000 0.000000 0.000000
								CHANNELS 3 Zrotation Yrotation Xrotation
								JOINT RightHandIndex1
								{
									OFFSET -0.750000 0.000000 0.000000
									CHANNELS 3 Zrotation Yrotation Xrotation
									End Site
									{
										OFFSET 0.000000 0.000000 0.000000
									}
								}
							}
						}
					}
				}
			}
		}
	}
}
MOTION
Frames: 9
Frame Time: 0.016667
-0.452140 16.947970 -1.681080 -4.926076 -33.643919 6.410470 -14.850573 14.268422 2.705390 12.362462 -1.732834 -14.546553 -3.915241 6.991078 22.584415 -0.077003 5.061060 2.929436 0.205510 -0.292980 0.266560 18.382377 -10.659577 2.961956 -3.277753 2.202406 -17.804739 10.547757 -6.550740 16.655836 -0.186942 -3.284017 3.462022 -0.307890 0.293850 0.361110 -3.930035 -3.325475 -7.166425 17.041971 -5.209393 8.351353 -10.052508 -2.864064 8.487259 4.754158 -6.692027 -17.643068 -19.223799 12.899452 40.952433 -4.825890 10.517600 3.571120 -4.546562 -13.135089 9.093950 -40.971249 -2.341654 -5.371122 -46.662615 -46.852570 15.235424 -3.579082 3.331154 0.542360 0.184750 0.003660 0.201810 -4.298182 17.356211 12.128876 53.242880 -2.490388 -12.065692 54.717241 45.785352 15.721637 2.030465 -1.905493 -0.093960 -0.002330 -0.038630 -0.181730 
-0.453120 16.945740 -1.680990 -4.890367 -33.620543 6.431294 -14.852273 14.264496 2.717715 12.414518 -1.761009 -14.672130 -4.024906 7.058414 22.728485 -0.062500 5.099285 2.924689 0.187870 -0.311390 0.247300 18.379252 -10.657638 2.963728 -3.289106 2.221967 -17.885983 10.546081 -6.559056 16.728413 -0.173684 -3.299366 3.463794 -0.316300 0.316230 0.362280 -3.919061 -3.326531 -7.184088 16.920317 -5.224135 8.472342 -9.975051 -2.862816 8.336207 4.724223 -6.659493 -17.588380 -18.866926 12.699659 40.344416 -4.712860 10.478540 4.172010 -5.244434 -13.303749 9.047585 -39.904699 -1.968500 -5.353117 -47.244048 -47.150648 15.713020 -3.597198 3.342365 0.523550 0.202050 -0.014820 0.205850 -3.535505 17.514468 12.220880 52.133121 -2.956847 -11.976983 55.246554 46.317128 16.193054 2.037699 -1.906880 -0.097650 -0.004080 -0.032250 -0.174210 
-0.454110 16.943390 -1.680560 -4.844417 -33.598291 6.476578 -14.855425 14.255727 2.729191 12.458636 -1.789992 -14.811661 -4.150618 7.127950 22.851029 -0.045656 5.135667 2.921430 0.169460 -0.329530 0.227130 18.376008 -10.654812 2.964486 -3.314119 2.243085 -17.987058 10.554428 -6.564224 16.785006 -0.158556 -3.316333 3.464493 -0.324350 0.340490 0.364210 -3.907201 -3.321216 -7.197900 16.759594 -5.219324 8.533149 -9.859211 -2.862274 8.206452 4.670733 -6.620721 -17.491664 -18.457964 12.471074 39.648617 -4.607560 10.442290 4.838680 -5.906522 -13.426683 8.982221 -38.934358 -1.668516 -5.307056 -47.737568 -47.374199 16.132595 -3.617644 3.356630 0.500080 0.221860 -0.035340 0.210120 -2.766098 17.611992 12.277300 51.076942 -3.371237 -11.869009 55.572146 46.805161 16.578928 2.045762 -1.911190 -0.100240 -0.007520 -0.026500 -0.165100 
-0.454990 16.941240 -1.680020 -4.800645 -33.577008 6.539709 -14.859906 14.242276 2.740179 12.515190 -1.817060 -14.952752 -4.305337 7.203883 22.943110 -0.031047 5.175136 2.917981 0.150400 -0.348630 0.205290 18.372835 -10.650881 2.964013 -3.331435 2.268346 -18.099504 10.551205 -6.563608 16.833695 -0.141750 -3.334234 3.465549 -0.331140 0.367570 0.366690 -3.894889 -3.310040 -7.208315 16.576104 -5.199007 8.553387 -9.710015 -2.861766 8.099067 4.598386 -6.573883 -17.354089 -18.006794 12.235953 38.896537 -4.512980 10.410280 5.516750 -6.541270 -13.507392 8.895987 -38.067257 -1.440590 -5.242247 -48.105380 -47.560199 16.484358 -3.641110 3.371236 0.475460 0.244510 -0.058360 0.215050 -1.991340 17.648739 12.297179 50.079641 -3.725954 -11.747641 55.696437 47.257748 16.881152 2.051065 -1.916531 -0.104520 -0.010380 -0.019660 -0.156290 
-0.455510 16.939580 -1.679180 -4.755227 -33.553551 6.611177 -14.865144 14.226489 2.749075 12.562011 -1.843567 -15.091062 -4.450039 7.273007 23.021376 -0.018700 5.214720 2.915675 0.131080 -0.368590 0.182120 18.369838 -10.647107 2.962739 -3.352389 2.291612 -18.206344 10.545852 -6.556819 16.849776 -0.124351 -3.352252 3.467003 -0.337060 0.397310 0.370560 -3.882623 -3.294322 -7.214772 16.376323 -5.166536 8.538066 -9.538813 -2.862313 8.010643 4.511563 -6.518535 -17.183774 -17.533074 12.002250 38.127096 -4.433970 10.378500 6.194630 -7.157960 -13.556976 8.790473 -37.286195 -1.283789 -5.157788 -48.350178 -47.685019 16.756983 -3.667426 3.385818 0.450360 0.269500 -0.082770 0.221170 -1.210402 17.636302 12.286968 49.143874 -4.028788 -11.619925 55.642404 47.677192 17.104973 2.053656 -1.922503 -0.109910 -0.012340 -0.011760 -0.147520 
-0.455460 16.938380 -1.678000 -4.707107 -33.533014 6.687765 -14.870767 14.209194 2.755875 12.592859 -1.867346 -15.219244 -4.580709 7.333703 23.077103 -0.008271 5.250195 2.915101 0.110090 -0.389520 0.157070 18.366955 -10.644272 2.961232 -3.380565 2.314272 -18.317703 10.544768 -6.549634 16.857702 -0.104647 -3.372338 3.468849 -0.342440 0.428750 0.373310 -3.870354 -3.273642 -7.218244 16.159640 -5.118954 8.489641 -9.346697 -2.859604 7.939514 4.415180 -6.446580 -16.994684 -17.027159 11.769070 37.363776 -4.361860 10.355160 6.916760 -7.765259 -13.595164 8.679401 -36.571346 -1.168480 -5.065912 -48.525979 -47.780598 16.987132 -3.695677 3.399825 0.423610 0.296570 -0.109680 0.226730 -0.423272 17.593996 12.256341 48.275428 -4.290809 -11.495704 55.410741 48.076494 17.249208 2.054952 -1.928701 -0.116750 -0.014100 -0.002940 -0.138800 
-0.454940 16.937520 -1.676430 -4.667404 -33.522257 6.779594 -14.876717 14.188957 2.760653 12.623608 -1.887123 -15.332786 -4.714862 7.390170 23.097748 0.001312 5.283476 2.916292 0.089380 -0.410630 0.133130 18.364490 -10.641807 2.959683 -3.410589 2.337622 -18.428365 10.551304 -6.539932 16.843254 -0.085541 -3.392167 3.469947 -0.347700 0.460990 0.377220 -3.859223 -3.246270 -7.218557 15.939826 -5.053149 8.401963 -9.140689 -2.850938 7.888959 4.312719 -6.353543 -16.781660 -16.487582 11.536186 36.632668 -4.318720 10.349400 7.617340 -8.342337 -13.606350 8.557854 -35.950595 -1.115578 -4.961567 -48.616486 -47.845514 17.164991 -3.725436 3.413328 0.396810 0.324490 -0.136430 0.232300 0.339950 17.503076 12.196943 47.500627 -4.489988 -11.369150 55.005596 48.434820 17.308698 2.055126 -1.935333 -0.123650 -0.015530 0.006000 -0.130280 
-0.453920 16.936690 -1.674450 -4.636834 -33.512000 6.879921 -14.882668 14.166126 2.762592 12.651211 -1.901175 -15.424523 -4.846432 7.438741 23.076926 0.010066 5.312067 2.919124 0.068700 -0.430880 0.108510 18.362842 -10.640076 2.957657 -3.440492 2.356895 -18.522705 10.564356 -6.525471 16.793317 -0.066116 -3.412048 3.470764 -0.352020 0.493790 0.381750 -3.850491 -3.212589 -7.214210 15.731069 -4.979361 8.278029 -8.938520 -2.842877 7.862582 4.201987 -6.251481 -16.547596 -15.939722 11.309715 35.907052 -4.282020 10.340480 8.301300 -8.880061 -13.586711 8.428259 -35.415687 -1.114250 -4.848808 -48.637129 -47.881663 17.296989 -3.756698 3.427548 0.368520 0.353410 -0.163670 0.237790 1.075725 17.366676 12.108973 46.826972 -4.625369 -11.243561 54.448266 48.758871 17.290295 2.054095 -1.943119 -0.130110 -0.017180 0.015330 -0.121290 
-0.452280 16.936160 -1.671990 -4.617441 -33.493961 6.988689 -14.888819 14.141574 2.762233 12.678264 -1.912464 -15.502874 -4.972262 7.480069 23.028070 0.018241 5.337949 2.923600 0.048340 -0.451090 0.084800 18.361729 -10.638324 2.955193 -3.467547 2.372162 -18.600398 10.584993 -6.507705 16.710383 -0.047013 -3.431370 3.471536 -0.356150 0.527270 0.387290 -3.843209 -3.175474 -7.206120 15.533244 -4.901552 8.119261 -8.729236 -2.839685 7.856445 4.086797 -6.142857 -16.299610 -15.400052 11.087129 35.210579 -4.270290 10.332000 8.967750 -9.372003 -13.544080 8.295095 -34.999051 -1.171855 -4.732955 -48.552440 -47.877365 17.356775 -3.788992 3.440854 0.339930 0.383020 -0.190620 0.243460 1.771725 17.196850 11.996277 46.255562 -4.694647 -11.120647 53.735458 49.011263 17.174416 2.052303 -1.951056 -0.136450 -0.018510 0.024520 -0.112100 
